# This file uses centimeters as units for non-parametric coordinates.

mtllib sujeira 2.mtl
g default
v -0.407066 -0.171615 0.253697
v -0.407066 -0.171615 -0.253697
v -0.407066 -0.575874 0.253697
v -0.407066 -0.575874 -0.253697
vt 0.942707 0.677665
vt 0.477725 0.679745
vt 0.475925 0.338568
vt 0.940908 0.336488
vn -1.000000 0.000000 0.000000
vn -1.000000 0.000000 0.000000
vn -1.000000 0.000000 0.000000
vn -1.000000 0.000000 0.000000
s off
g escalar2
usemtl initialShadingGroup
f 2/2/1 4/3/2 3/4/3 1/1/4
