# This file uses centimeters as units for non-parametric coordinates.

mtllib sujeira 1.mtl
g default
v 0.000000 0.000000 0.500000
v 0.500000 0.000000 0.500000
v 0.000000 0.000000 -0.500000
v 0.500000 0.000000 -0.500000
v 0.000000 -0.816667 0.500000
v 0.000000 -0.816667 -0.500000
v 0.500000 0.000000 -0.453684
v 0.000000 0.000000 -0.453684
v 0.000000 -0.816667 -0.453684
v 0.500000 0.000000 -0.379785
v 0.000000 0.000000 -0.379785
v 0.000000 -0.816667 -0.379785
v 0.500000 0.000000 -0.249327
v 0.000000 0.000000 -0.249327
v 0.000000 -0.816667 -0.249327
v 0.500000 0.000000 -0.076729
v 0.000000 0.000000 -0.076729
v 0.000000 -0.816667 -0.076729
v 0.500000 0.000000 0.176994
v 0.000000 0.000000 0.176994
v 0.000000 -0.816667 0.176994
v 0.500000 0.000000 0.402153
v 0.000000 0.000000 0.402153
v 0.000000 -0.816667 0.402153
v 0.500000 0.000000 0.288116
v 0.000000 0.000000 0.288116
v 0.000000 -0.816667 0.288116
v 0.500000 0.000000 0.024686
v 0.000000 0.000000 0.024686
v 0.000000 -0.816667 0.024686
vt 0.830743 0.619349
vt 0.829048 0.988234
vt 0.011189 0.646919
vt 0.009575 0.998113
vt 0.013825 0.073301
vt 0.833512 0.016835
vt 0.047905 0.998655
vt 0.049470 0.658036
vt 0.046357 0.073451
vt 0.104728 0.997982
vt 0.106342 0.646787
vt 0.102370 0.101923
vt 0.261989 0.986649
vt 0.263554 0.646030
vt 0.200611 0.073591
vt 0.403460 0.988724
vt 0.404912 0.672781
vt 0.383691 0.090226
vt 0.585630 0.974994
vt 0.587179 0.637900
vt 0.573762 0.115252
vt 0.756860 0.987902
vt 0.749297 0.647246
vt 0.751880 0.085144
vt 0.669225 0.991029
vt 0.662096 0.638244
vt 0.664626 0.087658
vt 0.468114 0.993182
vt 0.468995 0.673076
vt 0.471366 0.157036
vt 0.469647 0.659614
vt 0.472151 0.114785
vt 0.407284 0.156741
vt 0.467543 0.989018
vt 0.381135 0.646570
vt 0.379569 0.987189
vt 0.670806 0.646885
vt 0.673390 0.084783
vt 0.589710 0.087313
vt 0.660547 0.975338
vt 0.571258 0.660081
vt 0.569725 0.993649
vt 0.758555 0.619017
vt 0.761324 0.016503
vt 0.747715 0.991390
vt 0.266111 0.089686
vt 0.197974 0.647208
vt 0.196360 0.998403
vt 0.108978 0.073169
vt 0.099813 0.658268
vt 0.098247 0.998887
vt 0.052027 0.101692
vt 0.043721 0.647068
vt 0.042107 0.998263
vn 0.000000 1.000000 0.000000
vn 0.000000 1.000000 0.000000
vn 0.000000 1.000000 0.000000
vn 0.000000 1.000000 0.000000
vn -1.000000 0.000000 0.000000
vn -1.000000 0.000000 0.000000
vn -1.000000 0.000000 0.000000
vn -1.000000 0.000000 0.000000
vn 0.000000 1.000000 0.000000
vn 0.000000 1.000000 0.000000
vn 0.000000 1.000000 0.000000
vn 0.000000 1.000000 0.000000
vn -1.000000 0.000000 0.000000
vn -1.000000 0.000000 0.000000
vn -1.000000 0.000000 0.000000
vn -1.000000 0.000000 0.000000
vn 0.000000 1.000000 0.000000
vn 0.000000 1.000000 0.000000
vn -1.000000 0.000000 0.000000
vn -1.000000 0.000000 0.000000
vn 0.000000 1.000000 0.000000
vn 0.000000 1.000000 0.000000
vn -1.000000 0.000000 0.000000
vn -1.000000 0.000000 0.000000
vn 0.000000 1.000000 0.000000
vn 0.000000 1.000000 0.000000
vn -1.000000 0.000000 0.000000
vn -1.000000 0.000000 0.000000
vn 0.000000 1.000000 0.000000
vn 0.000000 1.000000 0.000000
vn 0.000000 1.000000 0.000000
vn 0.000000 1.000000 0.000000
vn -1.000000 0.000000 0.000000
vn -1.000000 0.000000 0.000000
vn -1.000000 0.000000 0.000000
vn -1.000000 0.000000 0.000000
vn 0.000000 1.000000 0.000000
vn 0.000000 1.000000 0.000000
vn -1.000000 0.000000 0.000000
vn -1.000000 0.000000 0.000000
s 1
g escalar1
usemtl initialShadingGroup
f 1/1/1 2/2/2 22/22/3 23/43/4
s 2
f 1/1/5 23/43/6 24/44/7 5/6/8
s 1
f 8/53/9 7/54/10 4/4/11 3/3/12
s 2
f 9/9/13 8/53/14 3/3/15 6/5/16
s 1
f 11/50/17 10/51/18 7/7/10 8/8/9
s 2
f 12/12/19 11/50/20 8/8/14 9/52/13
s 1
f 14/47/21 13/48/22 10/10/18 11/11/17
s 2
f 15/15/23 14/47/24 11/11/20 12/49/19
s 1
f 17/35/25 16/36/26 13/13/22 14/14/21
s 2
f 18/18/27 17/35/28 14/14/24 15/46/23
s 1
f 20/41/29 19/42/30 28/28/31 29/31/32
s 2
f 21/21/33 20/41/34 29/31/35 30/32/36
s 1
f 23/23/4 22/45/3 25/25/37 26/37/38
s 2
f 24/24/7 23/23/6 26/37/39 27/38/40
s 1
f 26/26/38 25/40/37 19/19/30 20/20/29
s 2
f 27/27/40 26/26/39 20/20/34 21/39/33
s 1
f 29/29/32 28/34/31 16/16/26 17/17/25
s 2
f 30/30/36 29/29/35 17/17/28 18/33/27
